<mxfile host="app.diagrams.net" agent="Mozilla/5.0 (Windows NT 10.0; Win64; x64) AppleWebKit/537.36 (KHTML, like Gecko) Chrome/132.0.0.0 Safari/537.36" version="26.0.11">
  <diagram name="Page-1" id="WKPouHimn52-6LenCnew">
    <mxGraphModel dx="1872" dy="900" grid="1" gridSize="10" guides="1" tooltips="1" connect="1" arrows="1" fold="1" page="1" pageScale="1" pageWidth="1100" pageHeight="850" math="1" shadow="0">
      <root>
        <mxCell id="0" />
        <mxCell id="1" parent="0" />
        <mxCell id="nryE9-zFJHSN5jESilzS-21" value="" style="rounded=0;whiteSpace=wrap;html=1;fontSize=25;" vertex="1" parent="1">
          <mxGeometry x="320" y="150" width="460" height="490" as="geometry" />
        </mxCell>
        <mxCell id="nryE9-zFJHSN5jESilzS-8" style="edgeStyle=orthogonalEdgeStyle;rounded=0;orthogonalLoop=1;jettySize=auto;html=1;exitX=0.5;exitY=1;exitDx=0;exitDy=0;" edge="1" parent="1" source="nryE9-zFJHSN5jESilzS-2" target="nryE9-zFJHSN5jESilzS-6">
          <mxGeometry relative="1" as="geometry" />
        </mxCell>
        <mxCell id="nryE9-zFJHSN5jESilzS-2" value="two-dimensional advection equation" style="rounded=0;whiteSpace=wrap;html=1;fontSize=25;" vertex="1" parent="1">
          <mxGeometry x="20" y="180" width="240" height="110" as="geometry" />
        </mxCell>
        <mxCell id="nryE9-zFJHSN5jESilzS-4" value="$$Ax=b$$" style="rounded=0;whiteSpace=wrap;html=1;fontSize=25;" vertex="1" parent="1">
          <mxGeometry x="70" y="490" width="140" height="110" as="geometry" />
        </mxCell>
        <mxCell id="nryE9-zFJHSN5jESilzS-9" style="edgeStyle=orthogonalEdgeStyle;rounded=0;orthogonalLoop=1;jettySize=auto;html=1;exitX=0.5;exitY=1;exitDx=0;exitDy=0;" edge="1" parent="1" source="nryE9-zFJHSN5jESilzS-6" target="nryE9-zFJHSN5jESilzS-4">
          <mxGeometry relative="1" as="geometry" />
        </mxCell>
        <mxCell id="nryE9-zFJHSN5jESilzS-6" value="computational fluid simulation using MFEM" style="rounded=0;whiteSpace=wrap;html=1;fontSize=25;" vertex="1" parent="1">
          <mxGeometry x="20" y="340" width="240" height="110" as="geometry" />
        </mxCell>
        <mxCell id="nryE9-zFJHSN5jESilzS-22" value="Reinforcement Learning" style="rounded=0;whiteSpace=wrap;html=1;fontSize=25;" vertex="1" parent="1">
          <mxGeometry x="390" y="160" width="340" height="40" as="geometry" />
        </mxCell>
        <mxCell id="nryE9-zFJHSN5jESilzS-26" style="edgeStyle=orthogonalEdgeStyle;rounded=0;orthogonalLoop=1;jettySize=auto;html=1;entryX=0;entryY=0.5;entryDx=0;entryDy=0;" edge="1" parent="1" source="nryE9-zFJHSN5jESilzS-23" target="nryE9-zFJHSN5jESilzS-25">
          <mxGeometry relative="1" as="geometry" />
        </mxCell>
        <mxCell id="nryE9-zFJHSN5jESilzS-23" value="Agent selects an action" style="rounded=0;whiteSpace=wrap;html=1;fontSize=25;" vertex="1" parent="1">
          <mxGeometry x="340" y="240" width="140" height="100" as="geometry" />
        </mxCell>
        <mxCell id="nryE9-zFJHSN5jESilzS-32" style="edgeStyle=orthogonalEdgeStyle;rounded=0;orthogonalLoop=1;jettySize=auto;html=1;exitX=0.75;exitY=1;exitDx=0;exitDy=0;entryX=1;entryY=0.5;entryDx=0;entryDy=0;" edge="1" parent="1" source="nryE9-zFJHSN5jESilzS-25" target="nryE9-zFJHSN5jESilzS-29">
          <mxGeometry relative="1" as="geometry" />
        </mxCell>
        <mxCell id="nryE9-zFJHSN5jESilzS-33" style="edgeStyle=orthogonalEdgeStyle;rounded=0;orthogonalLoop=1;jettySize=auto;html=1;exitX=0.75;exitY=1;exitDx=0;exitDy=0;entryX=1;entryY=0.5;entryDx=0;entryDy=0;" edge="1" parent="1" source="nryE9-zFJHSN5jESilzS-25" target="nryE9-zFJHSN5jESilzS-28">
          <mxGeometry relative="1" as="geometry" />
        </mxCell>
        <mxCell id="nryE9-zFJHSN5jESilzS-34" style="edgeStyle=orthogonalEdgeStyle;rounded=0;orthogonalLoop=1;jettySize=auto;html=1;exitX=0.75;exitY=1;exitDx=0;exitDy=0;entryX=1;entryY=0.5;entryDx=0;entryDy=0;" edge="1" parent="1" source="nryE9-zFJHSN5jESilzS-25" target="nryE9-zFJHSN5jESilzS-30">
          <mxGeometry relative="1" as="geometry" />
        </mxCell>
        <mxCell id="nryE9-zFJHSN5jESilzS-36" style="edgeStyle=orthogonalEdgeStyle;rounded=0;orthogonalLoop=1;jettySize=auto;html=1;exitX=1;exitY=0.5;exitDx=0;exitDy=0;entryX=0;entryY=0.5;entryDx=0;entryDy=0;" edge="1" parent="1" source="nryE9-zFJHSN5jESilzS-25" target="nryE9-zFJHSN5jESilzS-35">
          <mxGeometry relative="1" as="geometry" />
        </mxCell>
        <mxCell id="nryE9-zFJHSN5jESilzS-25" value="Environment&amp;nbsp;" style="rounded=0;whiteSpace=wrap;html=1;fontSize=25;" vertex="1" parent="1">
          <mxGeometry x="550" y="245" width="210" height="90" as="geometry" />
        </mxCell>
        <mxCell id="nryE9-zFJHSN5jESilzS-28" value="termination" style="rounded=0;whiteSpace=wrap;html=1;fontSize=25;" vertex="1" parent="1">
          <mxGeometry x="530" y="460" width="150" height="50" as="geometry" />
        </mxCell>
        <mxCell id="nryE9-zFJHSN5jESilzS-29" value="reward" style="rounded=0;whiteSpace=wrap;html=1;fontSize=25;" vertex="1" parent="1">
          <mxGeometry x="530" y="390" width="150" height="50" as="geometry" />
        </mxCell>
        <mxCell id="nryE9-zFJHSN5jESilzS-30" value="observation" style="rounded=0;whiteSpace=wrap;html=1;fontSize=25;" vertex="1" parent="1">
          <mxGeometry x="530" y="530" width="150" height="50" as="geometry" />
        </mxCell>
        <mxCell id="nryE9-zFJHSN5jESilzS-38" style="edgeStyle=orthogonalEdgeStyle;rounded=0;orthogonalLoop=1;jettySize=auto;html=1;exitX=0.5;exitY=1;exitDx=0;exitDy=0;" edge="1" parent="1" source="nryE9-zFJHSN5jESilzS-35" target="nryE9-zFJHSN5jESilzS-37">
          <mxGeometry relative="1" as="geometry" />
        </mxCell>
        <mxCell id="nryE9-zFJHSN5jESilzS-35" value="SOR Preconditioner" style="rounded=0;whiteSpace=wrap;html=1;fontSize=25;" vertex="1" parent="1">
          <mxGeometry x="840" y="245" width="210" height="90" as="geometry" />
        </mxCell>
        <mxCell id="nryE9-zFJHSN5jESilzS-44" style="edgeStyle=orthogonalEdgeStyle;rounded=0;orthogonalLoop=1;jettySize=auto;html=1;exitX=1;exitY=0.5;exitDx=0;exitDy=0;entryX=1;entryY=0.5;entryDx=0;entryDy=0;" edge="1" parent="1" source="nryE9-zFJHSN5jESilzS-37" target="nryE9-zFJHSN5jESilzS-39">
          <mxGeometry relative="1" as="geometry" />
        </mxCell>
        <mxCell id="nryE9-zFJHSN5jESilzS-45" style="edgeStyle=orthogonalEdgeStyle;rounded=0;orthogonalLoop=1;jettySize=auto;html=1;exitX=1;exitY=0.5;exitDx=0;exitDy=0;entryX=1;entryY=0.5;entryDx=0;entryDy=0;" edge="1" parent="1" source="nryE9-zFJHSN5jESilzS-37" target="nryE9-zFJHSN5jESilzS-40">
          <mxGeometry relative="1" as="geometry" />
        </mxCell>
        <mxCell id="nryE9-zFJHSN5jESilzS-37" value="Iterative Solver (FGMRES)" style="rounded=0;whiteSpace=wrap;html=1;fontSize=25;" vertex="1" parent="1">
          <mxGeometry x="840" y="370" width="210" height="90" as="geometry" />
        </mxCell>
        <mxCell id="nryE9-zFJHSN5jESilzS-50" style="edgeStyle=orthogonalEdgeStyle;rounded=0;orthogonalLoop=1;jettySize=auto;html=1;exitX=0;exitY=0.5;exitDx=0;exitDy=0;entryX=0.5;entryY=0;entryDx=0;entryDy=0;" edge="1" parent="1" source="nryE9-zFJHSN5jESilzS-39" target="nryE9-zFJHSN5jESilzS-49">
          <mxGeometry relative="1" as="geometry" />
        </mxCell>
        <mxCell id="nryE9-zFJHSN5jESilzS-39" value="convergence rate" style="rounded=0;whiteSpace=wrap;html=1;fontSize=25;" vertex="1" parent="1">
          <mxGeometry x="970" y="510" width="170" height="80" as="geometry" />
        </mxCell>
        <mxCell id="nryE9-zFJHSN5jESilzS-51" style="edgeStyle=orthogonalEdgeStyle;rounded=0;orthogonalLoop=1;jettySize=auto;html=1;exitX=0;exitY=0.5;exitDx=0;exitDy=0;entryX=0.5;entryY=1;entryDx=0;entryDy=0;" edge="1" parent="1" source="nryE9-zFJHSN5jESilzS-40" target="nryE9-zFJHSN5jESilzS-49">
          <mxGeometry relative="1" as="geometry" />
        </mxCell>
        <mxCell id="nryE9-zFJHSN5jESilzS-40" value="residual norm" style="rounded=0;whiteSpace=wrap;html=1;fontSize=25;" vertex="1" parent="1">
          <mxGeometry x="970" y="620" width="170" height="60" as="geometry" />
        </mxCell>
        <mxCell id="nryE9-zFJHSN5jESilzS-52" style="edgeStyle=orthogonalEdgeStyle;rounded=0;orthogonalLoop=1;jettySize=auto;html=1;exitX=0;exitY=0.5;exitDx=0;exitDy=0;entryX=0.5;entryY=1;entryDx=0;entryDy=0;" edge="1" parent="1" source="nryE9-zFJHSN5jESilzS-49" target="nryE9-zFJHSN5jESilzS-30">
          <mxGeometry relative="1" as="geometry" />
        </mxCell>
        <mxCell id="nryE9-zFJHSN5jESilzS-49" value="new state" style="rounded=0;whiteSpace=wrap;html=1;fontSize=25;" vertex="1" parent="1">
          <mxGeometry x="810" y="580" width="130" height="50" as="geometry" />
        </mxCell>
      </root>
    </mxGraphModel>
  </diagram>
</mxfile>
